<svg width="57" height="57" viewBox="0 0 57 57" fill="none" xmlns="http://www.w3.org/2000/svg">
<path d="M6.59058 31.1283C6.10655 31.1283 5.71387 30.736 5.71387 30.252C5.71387 29.768 6.10655 29.3757 6.59058 29.3757C8.93982 29.3827 11.2125 28.539 12.988 27.0009C13.3307 26.6591 13.8861 26.6599 14.2275 27.0031C14.5693 27.3457 14.5684 27.9006 14.2253 28.2425C12.1274 30.1198 9.40551 31.1487 6.59058 31.1283Z" fill="#BB141B"/>
<path d="M43.398 32.0059H33.7576C33.2736 32.0059 32.8813 31.6132 32.8813 31.1292C32.8813 30.6452 33.2736 30.2529 33.7576 30.2529H43.398C43.882 30.2529 44.2742 30.6452 44.2742 31.1292C44.2742 31.6132 43.882 32.0059 43.398 32.0059Z" fill="#BB141B"/>
<path d="M37.2639 52.1614H31.1291C30.8647 52.1614 30.6147 52.0418 30.4481 51.8361L15.5502 33.4324C15.2606 33.0558 15.3241 32.5166 15.6937 32.2174C16.0634 31.9182 16.6039 31.9682 16.9122 32.33L31.5474 50.4086H35.8757L27.7114 33.2574C27.503 32.8203 27.6887 32.2976 28.1258 32.0893C28.5629 31.8811 29.086 32.0667 29.2939 32.5038L38.0575 50.9074H38.0579C38.1875 51.1797 38.1679 51.4989 38.007 51.7533C37.8457 52.0081 37.5652 52.1616 37.2638 52.1608L37.2639 52.1614Z" fill="#BB141B"/>
<path d="M31.1282 20.6128C31.0078 20.6137 30.8882 20.5885 30.7777 20.5393C30.3346 20.3458 30.1324 19.8296 30.3255 19.3861L35.9232 6.59113H31.5457L20.4155 20.2901C20.1102 20.6658 19.5579 20.7223 19.1826 20.417C18.8069 20.1118 18.7499 19.5595 19.0552 19.1842L30.4485 5.16241H30.449C30.6151 4.95759 30.8652 4.83887 31.1287 4.83887H37.2634C37.5591 4.8393 37.8344 4.98802 37.9962 5.23547C38.158 5.48292 38.1845 5.79515 38.0662 6.06608L31.9315 20.0879V20.0874C31.7923 20.4066 31.477 20.6132 31.1287 20.6132L31.1282 20.6128Z" fill="#BB141B"/>
<path d="M23.4901 46.9033H17.9837C17.4997 46.9033 17.1074 46.5106 17.1074 46.0266V41.6448C17.1074 41.1608 17.4997 40.7686 17.9837 40.7686H19.9119H19.9115C20.3955 40.7686 20.7882 41.1608 20.7882 41.6448C20.7882 42.1289 20.3955 42.5211 19.9115 42.5211H18.8599V45.1503H23.4901C23.9737 45.1503 24.3663 45.5426 24.3663 46.0266C24.3663 46.5106 23.9737 46.9033 23.4901 46.9033Z" fill="#BB141B"/>
<path d="M19.911 16.231H17.9832C17.4992 16.231 17.1069 15.8387 17.1069 15.3547V10.973C17.1069 10.4889 17.4992 10.0967 17.9832 10.0967H23.4691C23.9531 10.0967 24.3454 10.4889 24.3454 10.973C24.3454 11.457 23.9531 11.8492 23.4691 11.8492H18.8595V14.4785H19.911C20.395 14.4785 20.7877 14.8707 20.7877 15.3547C20.7877 15.8388 20.395 16.231 19.911 16.231Z" fill="#BB141B"/>
<mask id="mask0_228_3721" style="mask-type:luminance" maskUnits="userSpaceOnUse" x="0" y="19" width="57" height="18">
<path d="M0.455566 19.7051H56.5438V36.4043H0.455566V19.7051Z" fill="white"/>
</mask>
<g mask="url(#mask0_228_3721)">
<path d="M53.9151 21.4883H15.3544V20.6116C15.3544 20.1276 14.9621 19.7354 14.4781 19.7354C13.9941 19.7354 13.6018 20.1276 13.6018 20.6116V21.4879L11.8489 21.4883C7.81757 21.4883 6.10768 24.4568 4.59863 27.0752C3.56624 28.8656 2.58994 30.5581 1.00574 31.1944V31.1939C0.674358 31.3274 0.456923 31.6479 0.456055 32.005C0.457359 33.1666 0.919636 34.2803 1.74112 35.1017C2.56259 35.9232 3.67633 36.3854 4.83782 36.3867C5.87239 36.4241 6.90217 36.2297 7.85192 35.8179C8.27809 35.6118 8.74601 35.5066 9.21958 35.5105H14.4781C14.9621 35.5105 15.3543 35.1178 15.3543 34.6338C15.3543 34.1497 14.9621 33.7575 14.4781 33.7575H9.21958C8.51943 33.7536 7.8262 33.9032 7.19007 34.1958C6.45035 34.522 5.64539 34.672 4.83782 34.6338C4.23204 34.6329 3.64538 34.4229 3.17613 34.0397C2.70689 33.6566 2.38379 33.1239 2.26115 32.5307C4.03505 31.5579 5.09178 29.7262 6.11722 27.948C7.57406 25.423 8.83263 23.2409 11.8488 23.2409H53.9153C54.1475 23.2409 54.3706 23.3335 54.535 23.4975C54.6989 23.6619 54.7916 23.885 54.7916 24.1172V25.8701C54.7328 26.6394 54.3397 27.3444 53.7152 27.7979L45.3082 32.9685C44.4506 33.4382 43.4982 33.7078 42.522 33.7574H32.8821C32.3981 33.7574 32.0058 34.1497 32.0058 34.6337C32.0058 35.1177 32.3981 35.5104 32.8821 35.5104H42.522C43.8232 35.4586 45.093 35.0981 46.2266 34.4584L54.6345 29.2878C55.7795 28.518 56.4888 27.2487 56.544 25.8701V24.1172C56.544 23.42 56.267 22.7512 55.7738 22.2581C55.2811 21.7654 54.6121 21.4883 53.9151 21.4883Z" fill="#BB141B"/>
</g>
<path d="M9.21905 39.0165C8.73503 39.0165 8.34277 38.6243 8.34277 38.1402V37.264C8.34277 36.7799 8.73503 36.3877 9.21905 36.3877C9.70307 36.3877 10.0958 36.7799 10.0958 37.264V38.1402C10.0958 38.3729 10.0031 38.5956 9.83875 38.7599C9.67436 38.9243 9.4517 39.0165 9.21905 39.0165Z" fill="#BB141B"/>
<mask id="mask1_228_3721" style="mask-type:luminance" maskUnits="userSpaceOnUse" x="41" y="9" width="16" height="12">
<path d="M41.6367 9.12891H56.5436V20.707H41.6367V9.12891Z" fill="white"/>
</mask>
<g mask="url(#mask1_228_3721)">
<path d="M56.4132 9.63536C56.2536 9.37661 55.9714 9.21875 55.6674 9.21875H49.5327C49.2509 9.21875 48.986 9.35399 48.8212 9.58274L41.8101 19.3148C41.527 19.7075 41.6157 20.2555 42.0089 20.5385C42.4016 20.8216 42.9495 20.7329 43.2326 20.3402L46.1928 16.2298H52.1619V19.7353C52.1619 20.2193 52.5541 20.6116 53.0382 20.6116C53.5222 20.6116 53.9149 20.2193 53.9149 19.7353V15.5605L56.451 10.4873V10.4868C56.5867 10.2159 56.5724 9.89368 56.4132 9.63536ZM52.4967 14.4772H47.4557L49.9815 10.9717H54.2494L52.4967 14.4772Z" fill="#BB141B"/>
</g>
</svg>
