<svg width="51" height="53" viewBox="0 0 51 53" fill="none" xmlns="http://www.w3.org/2000/svg">
<path d="M25.1852 26.668C24.7364 26.668 24.3438 27.0607 24.3438 27.5095C24.3438 27.9582 24.7364 28.3509 25.1852 28.3509C25.634 28.3509 26.0267 27.9582 26.0267 27.5095C26.0263 27.0602 25.6336 26.668 25.1852 26.668Z" fill="#BB141B"/>
<path d="M20.4728 13.0408C20.9216 13.0408 21.3143 12.6482 21.3143 12.1994C21.3143 10.068 23.0529 8.32936 25.1843 8.32936C27.3157 8.32936 29.0543 10.068 29.0543 12.1994C29.0543 14.3307 27.3157 16.0693 25.1843 16.0693C24.7355 16.0693 24.3428 16.462 24.3428 16.9108V23.6975C24.3428 24.1463 24.7355 24.539 25.1843 24.539C25.6331 24.539 26.0258 24.1463 26.0258 23.6975L26.0253 17.6962C28.6616 17.3036 30.7367 15.0039 30.7367 12.1994C30.7367 9.11441 28.2688 6.64648 25.1838 6.64648C22.0988 6.64648 19.6309 9.11441 19.6309 12.1994C19.6313 12.6482 20.024 13.0408 20.4728 13.0408Z" fill="#BB141B"/>
<path d="M49.5266 11.1887H41.0574C38.5334 4.90689 32.3634 0.419922 25.1843 0.419922C18.0049 0.419922 11.8349 4.907 9.3111 11.1887H0.841484C0.392698 11.1887 0 11.5814 0 12.0302V45.403C0 45.8518 0.392687 46.2445 0.841484 46.2445H21.7623V50.8437H17.8362C17.3874 50.8437 16.9947 51.2364 16.9947 51.6852C16.9947 52.134 17.3874 52.5267 17.8362 52.5267H32.4758C32.9246 52.5267 33.3173 52.134 33.3173 51.6852C33.3173 51.2364 32.9246 50.8437 32.4758 50.8437H28.5497V46.2445H49.4705C49.9193 46.2445 50.312 45.8518 50.312 45.403L50.3115 12.0302C50.3676 11.5814 49.975 11.1887 49.5262 11.1887H49.5266ZM25.1847 2.10242C33.6539 2.10242 40.5524 9.00132 40.5524 17.4702C40.5524 25.9393 33.6536 32.8379 25.1847 32.8379L10.9948 32.8383L14.3043 29.5289C14.4726 29.3606 14.5287 29.1362 14.5287 28.9118C14.5287 28.6874 14.4165 28.463 14.3043 28.2947C11.3876 25.378 9.8172 21.508 9.8172 17.4137C9.81677 9.00064 16.7157 2.10163 25.1849 2.10163L25.1847 2.10242ZM26.9233 50.8998H23.5022V46.3006H26.9233V50.8998ZM48.6857 44.618H1.68413V12.8716H8.75123C8.35855 14.3298 8.13414 15.9005 8.13414 17.4708C8.13414 21.7335 9.70443 25.7717 12.5651 28.9131L8.35858 33.1197C8.13419 33.3441 8.02199 33.7368 8.19029 34.0172C8.30248 34.3538 8.63907 34.5221 8.97567 34.5221L25.185 34.5217C34.608 34.5217 42.2361 26.8375 42.2361 17.4707C42.2361 15.9004 42.0117 14.3296 41.619 12.8715H48.6861L48.6857 44.618Z" fill="#BB141B"/>
</svg>
