<svg width="57" height="57" viewBox="0 0 57 57" fill="none" xmlns="http://www.w3.org/2000/svg">
<path d="M53.7395 4.46588C52.9429 3.6692 51.8622 3.22168 50.7355 3.22168C49.6092 3.22168 48.5285 3.66916 47.7314 4.46588L44.1285 8.1032L11.0707 41.1187C11.0016 41.1887 10.9446 41.2687 10.9007 41.3565L6.70238 50.3732C6.54931 50.6955 6.61367 51.079 6.86372 51.3334C7.02419 51.4926 7.24119 51.5813 7.46733 51.58C7.5904 51.5804 7.71216 51.5543 7.82436 51.5035L16.841 47.2543H16.8406C16.9293 47.2117 17.0098 47.1543 17.0789 47.0843L53.7393 10.474C54.536 9.67687 54.9835 8.59668 54.9835 7.46993C54.9835 6.34318 54.536 5.26251 53.7393 4.46585L53.7395 4.46588ZM47.1281 14.6638L43.5247 11.0522L44.7229 9.85405L48.3262 13.4574L47.1281 14.6638ZM16.4839 45.3246L12.8806 41.7213L42.318 12.275L45.9295 15.8784L16.4839 45.3246ZM11.9286 43.1747L15.0219 46.2679L9.22622 48.9702L11.9286 43.1747ZM52.5333 9.26746L49.5336 12.2759L45.9307 8.67253L48.8966 5.66411C49.3827 5.20271 50.0276 4.94526 50.6983 4.94526C51.3684 4.94526 52.0133 5.20271 52.4996 5.66411C52.9818 6.13769 53.2558 6.78307 53.2623 7.45883C53.2689 8.13419 53.0066 8.78475 52.5339 9.26746H52.5333Z" fill="#BB141B"/>
<path d="M37.8473 30.1996C37.3781 30.1996 36.9976 30.5801 36.9976 31.0493V53.1446H3.00467V3.85522H36.9976V10.6536C36.9976 11.1228 37.3781 11.5033 37.8473 11.5033C38.317 11.5033 38.6975 11.1228 38.6975 10.6536V3.00545C38.6975 2.77976 38.6079 2.56361 38.4483 2.40446C38.2892 2.24486 38.073 2.15527 37.8473 2.15527H2.15443C1.68521 2.15527 1.30469 2.53579 1.30469 3.00545V53.9949C1.30469 54.2201 1.39427 54.4362 1.55387 54.5958C1.71304 54.755 1.92917 54.8446 2.15443 54.8446H37.8473C38.073 54.8446 38.2892 54.755 38.4483 54.5958C38.6079 54.4362 38.6975 54.2201 38.6975 53.9949V31.049C38.6975 30.8237 38.6079 30.6076 38.4483 30.448C38.2892 30.2889 38.073 30.1993 37.8473 30.1993V30.1996Z" fill="#BB141B"/>
<path d="M31.0495 9.80273H8.95424C8.48457 9.80273 8.10449 10.1833 8.10449 10.6525C8.10449 11.1217 8.48458 11.5022 8.95424 11.5022H31.0495C31.5188 11.5022 31.8993 11.1217 31.8993 10.6525C31.8993 10.1833 31.5188 9.80273 31.0495 9.80273Z" fill="#BB141B"/>
<path d="M31.8993 15.7521C31.8993 15.5268 31.8097 15.3107 31.6505 15.1511C31.4909 14.9919 31.2748 14.9023 31.0495 14.9023H8.95424C8.48457 14.9023 8.10449 15.2829 8.10449 15.7521C8.10449 16.2213 8.48458 16.6018 8.95424 16.6018H31.0495C31.2748 16.6018 31.4909 16.5123 31.6505 16.3531C31.8097 16.1935 31.8993 15.9774 31.8993 15.7521Z" fill="#BB141B"/>
<path d="M8.95424 20.001C8.48457 20.001 8.10449 20.3815 8.10449 20.8507C8.10449 21.3199 8.48458 21.7005 8.95424 21.7005H25.1013C25.5705 21.7005 25.951 21.3199 25.951 20.8507C25.951 20.3815 25.5705 20.001 25.1013 20.001H8.95424Z" fill="#BB141B"/>
</svg>
