<svg width="54" height="53" viewBox="0 0 54 53" fill="none" xmlns="http://www.w3.org/2000/svg">
<path d="M7.65053 18.002C7.18086 18.002 6.80078 18.3825 6.80078 18.8517C6.80078 19.3209 7.18087 19.7014 7.65053 19.7014H23.7976C24.2668 19.7014 24.6473 19.3209 24.6473 18.8517C24.6473 18.3825 24.2668 18.002 23.7976 18.002H7.65053Z" fill="#BB141B"/>
<path d="M30.5936 13.754C30.5936 13.5288 30.504 13.3126 30.3449 13.153C30.1853 12.9939 29.9691 12.9043 29.7439 12.9043H7.64857C7.1789 12.9043 6.79883 13.2848 6.79883 13.754C6.79883 14.2233 7.17891 14.6038 7.64857 14.6038H29.7439C29.9691 14.6038 30.1853 14.5142 30.3449 14.355C30.504 14.1954 30.5936 13.9793 30.5936 13.754Z" fill="#BB141B"/>
<path d="M29.7458 7.80469H7.65053C7.18086 7.80469 6.80078 8.18521 6.80078 8.65443C6.80078 9.12366 7.18087 9.50418 7.65053 9.50418H29.7458C30.215 9.50418 30.5956 9.12366 30.5956 8.65443C30.5956 8.18521 30.215 7.80469 29.7458 7.80469Z" fill="#BB141B"/>
<path d="M36.5427 28.2006C36.0734 28.2006 35.6929 28.5811 35.6929 29.0503V51.1456H1.69998V1.8562H35.6929V8.65456C35.6929 9.12379 36.0734 9.50431 36.5427 9.50431C37.0123 9.50431 37.3928 9.12379 37.3928 8.65456V1.00643C37.3928 0.780734 37.3033 0.56459 37.1436 0.405435C36.9845 0.245835 36.7684 0.15625 36.5427 0.15625H0.849747C0.380521 0.15625 0 0.53677 0 1.00643V51.9958C0 52.2211 0.0895859 52.4372 0.249187 52.5968C0.408353 52.756 0.624485 52.8456 0.849747 52.8456H36.5427C36.7684 52.8456 36.9845 52.756 37.1436 52.5968C37.3032 52.4372 37.3928 52.2211 37.3928 51.9958V29.05C37.3928 28.8247 37.3033 28.6086 37.1436 28.449C36.9845 28.2898 36.7684 28.2002 36.5427 28.2002V28.2006Z" fill="#BB141B"/>
<path d="M52.4339 2.46686C51.6372 1.67017 50.5566 1.22266 49.4298 1.22266C48.3035 1.22266 47.2228 1.67014 46.4257 2.46686L42.8228 6.10417L9.76504 39.1196C9.6959 39.1897 9.63893 39.2697 9.59501 39.3575L5.39672 48.3742C5.24364 48.6964 5.308 49.08 5.55806 49.3344C5.71852 49.4936 5.93552 49.5823 6.16166 49.581C6.28474 49.5814 6.4065 49.5553 6.51869 49.5044L15.5354 45.2553C15.6241 45.2127 15.7041 45.1552 15.7733 45.0852L52.4336 8.47498C53.2303 7.67785 53.6778 6.59766 53.6778 5.4709C53.6778 4.34415 53.2306 3.26352 52.4339 2.46686ZM45.8224 12.6647L42.2191 9.05314L43.4172 7.85503L47.0206 11.4584L45.8224 12.6647ZM15.1783 43.3256L11.5749 39.7223L41.0123 10.276L44.6239 13.8793L15.1783 43.3256ZM10.6229 41.1756L13.7162 44.2689L7.92056 46.9712L10.6229 41.1756ZM51.2276 7.26844L48.2279 10.2769L44.625 6.6735L47.5909 3.66508C48.0771 3.20368 48.722 2.94624 49.3926 2.94624C50.0628 2.94624 50.7076 3.20368 51.1939 3.66508C51.6762 4.13866 51.9502 4.78404 51.9567 5.4598C51.9632 6.13517 51.7004 6.78572 51.2276 7.26844Z" fill="#BB141B"/>
</svg>
