<svg width="57" height="57" viewBox="0 0 57 57" fill="none" xmlns="http://www.w3.org/2000/svg">
<mask id="mask0_228_3723" style="mask-type:luminance" maskUnits="userSpaceOnUse" x="0" y="1" width="57" height="54">
<path d="M0.455566 1.00195H56.4436V54.7734H0.455566V1.00195Z" fill="white"/>
</mask>
<g mask="url(#mask0_228_3723)">
<path fill-rule="evenodd" clip-rule="evenodd" d="M45.2765 32.4272C42.425 32.4272 39.5735 33.5144 37.3975 35.6918C33.0456 40.0436 33.0456 47.0996 37.3975 51.4514C39.5736 53.6275 42.425 54.716 45.2765 54.716C48.1293 54.716 50.9812 53.6275 53.1568 51.4514C57.5091 47.0996 57.5091 40.0436 53.1568 35.6918C50.9812 33.5156 48.1293 32.4272 45.2765 32.4272ZM51.3548 49.6485C49.7318 51.2715 47.5722 52.1664 45.2765 52.1664C42.9821 52.1664 40.8225 51.2715 39.2 49.6485C35.8488 46.2973 35.8488 40.8454 39.2 37.4937C40.8225 35.8694 42.9821 34.9763 45.2765 34.9763C47.5722 34.9763 49.7318 35.8695 51.3548 37.4937C52.9773 39.1162 53.8722 41.2745 53.8722 43.5702C53.8722 45.8659 52.9773 48.0256 51.3548 49.6481V49.6485ZM48.896 41.8843H46.3463V39.3346C46.3463 38.631 45.7754 38.0601 45.0718 38.0601C44.3681 38.0601 43.7972 38.631 43.7972 39.3346V43.159C43.7972 43.8626 44.3681 44.4336 45.0718 44.4336H48.8961C49.5997 44.4336 50.1707 43.8626 50.1707 43.159C50.1707 42.4554 49.5997 41.8844 48.8961 41.8844L48.896 41.8843ZM31.0501 50.8075C31.0792 50.8075 29.8333 50.8061 29.862 50.8044C30.5252 50.7601 31.0501 50.2073 31.0501 49.5324C31.0501 48.8287 30.4791 48.2578 29.7755 48.2578H5.55606C4.15009 48.2578 3.00687 47.1144 3.00687 45.7086V18.9386H50.1721V27.8618C50.1721 28.5654 50.7431 29.1364 51.4467 29.1364C52.1504 29.1364 52.7213 28.5654 52.7213 27.8618V11.2906C52.7213 8.47824 50.4348 6.19167 47.6224 6.19167H42.5235V5.55414C42.5235 3.09401 40.5221 1.09277 38.0621 1.09277C35.6021 1.09277 33.6007 3.09412 33.6007 5.55414V6.19167H20.8537V5.55414C20.8537 3.09401 18.8523 1.09277 16.3923 1.09277C13.9317 1.09277 11.9305 3.09412 11.9305 5.55414V6.19167H5.55695C2.74502 6.19167 0.458008 8.47824 0.458008 11.2906V45.7088C0.458008 48.5207 2.74502 50.8077 5.55695 50.8077L31.0501 50.8075ZM3.00653 11.2904C3.00653 9.88402 4.14987 8.74079 5.55572 8.74079H11.9293V9.37832C11.9293 11.8384 13.9306 13.8397 16.3911 13.8397C18.8512 13.8397 20.8524 11.8383 20.8524 9.37832V8.74079H33.5995V9.37832C33.5995 11.8384 35.6008 13.8397 38.0609 13.8397C40.5209 13.8397 42.5222 11.8383 42.5222 9.37832V8.74079H47.6212C49.0276 8.74079 50.1708 9.88413 50.1708 11.2904V16.3894H3.00553L3.00653 11.2904ZM14.4789 5.55402C14.4789 4.49988 15.3369 3.64185 16.3911 3.64185C17.4452 3.64185 18.3032 4.49985 18.3032 5.55402V9.37836C18.3032 10.4325 17.4452 11.2905 16.3911 11.2905C15.3369 11.2905 14.4789 10.4325 14.4789 9.37836V5.55402ZM36.1489 5.55402C36.1489 4.49988 37.0069 3.64185 38.0611 3.64185C39.1153 3.64185 39.9733 4.49985 39.9733 5.55402V9.37836C39.9733 10.4325 39.1153 11.2905 38.0611 11.2905C37.0069 11.2905 36.1489 10.4325 36.1489 9.37836V5.55402ZM13.841 21.4884C11.3809 21.4884 9.37962 23.4898 9.37962 25.9498C9.37962 28.4098 11.381 30.4116 13.841 30.4116C16.3016 30.4116 18.3028 28.4099 18.3028 25.9498C18.3028 23.4896 16.3014 21.4884 13.841 21.4884ZM13.841 27.8619C12.7868 27.8619 11.9288 27.0039 11.9288 25.9498C11.9288 24.8956 12.7868 24.0376 13.841 24.0376C14.8951 24.0376 15.7532 24.8956 15.7532 25.9498C15.7532 27.0039 14.8951 27.8619 13.841 27.8619ZM26.5881 21.4884C24.1275 21.4884 22.1262 23.4898 22.1262 25.9498C22.1262 28.4098 24.1276 30.4116 26.5881 30.4116C29.0482 30.4116 31.0494 28.4099 31.0494 25.9498C31.0494 23.4896 29.0481 21.4884 26.5881 21.4884ZM26.5881 27.8619C25.5339 27.8619 24.6759 27.0039 24.6759 25.9498C24.6759 24.8956 25.5339 24.0376 26.5881 24.0376C27.6422 24.0376 28.5002 24.8956 28.5002 25.9498C28.5002 27.0039 27.6422 27.8619 26.5881 27.8619ZM34.8738 25.9498C34.8738 28.4099 36.8751 30.4116 39.3351 30.4116C41.7957 30.4116 43.7969 28.4099 43.7969 25.9498C43.7969 23.4896 41.7956 21.4884 39.3351 21.4884C36.875 21.4884 34.8738 23.4898 34.8738 25.9498ZM41.2473 25.9498C41.2473 27.0039 40.3893 27.8619 39.3351 27.8619C38.281 27.8619 37.423 27.0039 37.423 25.9498C37.423 24.8956 38.281 24.0376 39.3351 24.0376C40.3893 24.0376 41.2473 24.8956 41.2473 25.9498ZM26.5876 34.2355C24.127 34.2355 22.1258 36.2368 22.1258 38.6973C22.1258 41.1574 24.1271 43.1587 26.5876 43.1587C29.0477 43.1587 31.049 41.1573 31.049 38.6973C31.049 36.2367 29.0476 34.2355 26.5876 34.2355ZM26.5876 40.6095C25.5335 40.6095 24.6754 39.7515 24.6754 38.6973C24.6754 37.6431 25.5334 36.7851 26.5876 36.7851C27.6418 36.7851 28.4998 37.6431 28.4998 38.6973C28.4998 39.7515 27.6418 40.6095 26.5876 40.6095ZM13.8405 34.2355C11.3804 34.2355 9.37918 36.2368 9.37918 38.6973C9.37918 41.1574 11.3805 43.1587 13.8405 43.1587C16.3011 43.1587 18.3023 41.1573 18.3023 38.6973C18.3023 36.2367 16.301 34.2355 13.8405 34.2355ZM13.8405 40.6095C12.7864 40.6095 11.9284 39.7515 11.9284 38.6973C11.9284 37.6431 12.7864 36.7851 13.8405 36.7851C14.8947 36.7851 15.7527 37.6431 15.7527 38.6973C15.7527 39.7515 14.8947 40.6095 13.8405 40.6095Z" fill="#BB141B"/>
</g>
</svg>
