<svg width="57" height="57" viewBox="0 0 57 57" fill="none" xmlns="http://www.w3.org/2000/svg">
<path d="M47.5191 53.7396H9.47938C8.98754 53.7396 8.58833 53.3408 8.58833 52.8485L8.58789 4.15137C8.58789 3.65952 8.98754 3.26074 9.47938 3.26074H47.5191C48.0127 3.26074 48.411 3.65952 48.411 4.15137V52.8485C48.411 53.3408 48.0127 53.7396 47.5195 53.7396H47.5191ZM10.3711 51.9579H46.6285V5.04198H10.3711V51.9579Z" fill="#BB141B"/>
<path d="M24.7846 22.8585H15.2743C14.782 22.8585 14.3832 22.4602 14.3832 21.9679L14.3828 12.4658C14.3828 11.974 14.7816 11.5752 15.2739 11.5752H24.7842L24.7846 13.3564H16.1658V21.0768H24.7851V22.8585H24.7846Z" fill="#BB141B"/>
<path d="M24.7846 32.3605H15.2743C14.782 32.3605 14.3832 31.9617 14.3832 31.4699L14.3828 21.9678C14.3828 21.4759 14.7816 21.0771 15.2739 21.0771H24.7842V22.8584H16.1658V30.5783H24.7851V32.3605H24.7846Z" fill="#BB141B"/>
<path d="M24.7846 41.8624H15.2743C14.782 41.8624 14.3832 41.4636 14.3832 40.9718L14.3828 31.4702C14.3828 30.9783 14.7816 30.5791 15.2739 30.5791H24.7842V32.3612L16.1658 32.3608V40.0807H24.7851V41.8624L24.7846 41.8624Z" fill="#BB141B"/>
<path d="M22.407 19.7396C22.1713 19.7396 21.9443 19.6461 21.7764 19.4782L17.7651 15.4699L19.0254 14.2102L22.3604 17.5418L27.2654 11.8818L28.6131 13.0486L23.0814 19.4321C22.9192 19.6187 22.6865 19.73 22.4391 19.7387C22.4278 19.7396 22.4183 19.7396 22.407 19.7396Z" fill="#BB141B"/>
<path d="M30.9946 16.3252H44.0278V18.1073H30.9946V16.3252Z" fill="#BB141B"/>
<path d="M30.9946 25.8271H44.0278V27.6093H30.9946V25.8271Z" fill="#BB141B"/>
<path d="M30.9946 35.3291H44.0278V37.1112H30.9946V35.3291Z" fill="#BB141B"/>
</svg>
