<svg width="57" height="57" viewBox="0 0 57 57" fill="none" xmlns="http://www.w3.org/2000/svg">
<path d="M52.842 13.1877H44.3729C41.8488 6.90591 35.6788 2.41895 28.4997 2.41895C21.3204 2.41895 15.1503 6.90602 12.6265 13.1877H4.15691C3.70813 13.1877 3.31543 13.5804 3.31543 14.0292V47.402C3.31543 47.8508 3.70812 48.2435 4.15691 48.2435H25.0777V52.8427H21.1516C20.7028 52.8427 20.3101 53.2354 20.3101 53.6842C20.3101 54.133 20.7028 54.5257 21.1516 54.5257H35.7912C36.24 54.5257 36.6327 54.133 36.6327 53.6842C36.6327 53.2354 36.24 52.8427 35.7912 52.8427H31.8651V48.2435H52.7859C53.2347 48.2435 53.6274 47.8508 53.6274 47.402L53.627 14.0292C53.6831 13.5804 53.2904 13.1877 52.8416 13.1877H52.842ZM28.5001 4.10145C36.9693 4.10145 43.8679 11.0003 43.8679 19.4692C43.8679 27.9384 36.969 34.8369 28.5001 34.8369L14.3103 34.8373L17.6197 31.5279C17.788 31.3596 17.8441 31.1352 17.8441 30.9108C17.8441 30.6864 17.7319 30.462 17.6197 30.2937C14.703 27.377 13.1326 23.507 13.1326 19.4127C13.1322 10.9997 20.0311 4.10066 28.5004 4.10066L28.5001 4.10145ZM30.2388 52.8988H26.8176V48.2996H30.2388V52.8988ZM52.0012 46.617H4.99956V14.8707H12.0667C11.674 16.3288 11.4496 17.8996 11.4496 19.4699C11.4496 23.7325 13.0199 27.7707 15.8805 30.9122L11.674 35.1187C11.4496 35.3431 11.3374 35.7358 11.5057 36.0163C11.6179 36.3529 11.9545 36.5212 12.2911 36.5212L28.5005 36.5207C37.9234 36.5207 45.5515 28.8365 45.5515 19.4697C45.5515 17.8994 45.3271 16.3286 44.9344 14.8705H52.0015L52.0012 46.617Z" fill="#BB141B"/>
<path d="M23.7887 15.0389C24.2375 15.0389 24.6302 14.6462 24.6302 14.1974C24.6302 12.066 26.3688 10.3274 28.5002 10.3274C30.6316 10.3274 32.3702 12.066 32.3702 14.1974C32.3702 16.3288 30.6316 18.0674 28.5002 18.0674C28.0514 18.0674 27.6587 18.4601 27.6587 18.9089V25.6955C27.6587 26.1443 28.0514 26.537 28.5002 26.537C28.949 26.537 29.3417 26.1443 29.3417 25.6955L29.3412 19.6943C31.9775 19.3016 34.0527 17.0019 34.0527 14.1975C34.0527 11.1125 31.5847 8.64453 28.4997 8.64453C25.4147 8.64453 22.9468 11.1125 22.9468 14.1975C22.9472 14.6463 23.3399 15.0389 23.7887 15.0389Z" fill="#BB141B"/>
<path d="M28.5002 28.668C28.0514 28.668 27.6587 29.0607 27.6587 29.5095C27.6587 29.9582 28.0514 30.3509 28.5002 30.3509C28.949 30.3509 29.3417 29.9582 29.3417 29.5095C29.3412 29.0602 28.9485 28.668 28.5002 28.668Z" fill="#BB141B"/>
</svg>
