<svg width="40" height="51" viewBox="0 0 40 51" fill="none" xmlns="http://www.w3.org/2000/svg">
<path d="M22.4062 32.0684H35.4394V33.8505H22.4062V32.0684Z" fill="#BB141B"/>
<path d="M22.4062 22.5664H35.4394V24.3485H22.4062V22.5664Z" fill="#BB141B"/>
<path d="M22.4062 13.0645H35.4394V14.8466H22.4062V13.0645Z" fill="#BB141B"/>
<path d="M13.8196 16.4788C13.5839 16.4788 13.3569 16.3853 13.189 16.2175L9.17773 12.2092L10.438 10.9494L13.773 14.281L18.678 8.62109L20.0257 9.78781L14.494 16.1714C14.3318 16.3579 14.0991 16.4693 13.8517 16.478C13.8404 16.4788 13.8309 16.4788 13.8196 16.4788Z" fill="#BB141B"/>
<path d="M16.1967 38.6017H6.68642C6.19413 38.6017 5.79536 38.2029 5.79536 37.7111L5.79492 28.2094C5.79492 27.7176 6.1937 27.3184 6.68598 27.3184H16.1963V29.1005L7.57794 29.1001V36.82H16.1972V38.6017L16.1967 38.6017Z" fill="#BB141B"/>
<path d="M16.1967 29.0997H6.68642C6.19413 29.0997 5.79536 28.701 5.79536 28.2091L5.79492 18.707C5.79492 18.2152 6.1937 17.8164 6.68598 17.8164H16.1963V19.5977H7.57794V27.3176H16.1972V29.0997H16.1967Z" fill="#BB141B"/>
<path d="M16.1967 19.5978H6.68642C6.19413 19.5978 5.79536 19.1994 5.79536 18.7072L5.79492 9.20508C5.79492 8.71323 6.1937 8.31445 6.68598 8.31445H16.1963L16.1967 10.0957H7.57793V17.8161H16.1972V19.5978H16.1967Z" fill="#BB141B"/>
<path d="M38.9312 50.4788H0.891493C0.399645 50.4788 0.000434875 50.0801 0.000434875 49.5878L0 0.890625C0 0.398777 0.399645 0 0.891493 0H38.9312C39.4248 0 39.8231 0.398777 39.8231 0.890625V49.5878C39.8231 50.0801 39.4248 50.4788 38.9316 50.4788H38.9312ZM1.78323 48.6971H38.0406V1.78124H1.78323V48.6971Z" fill="#BB141B"/>
</svg>
