<svg width="56" height="54" viewBox="0 0 56 54" fill="none" xmlns="http://www.w3.org/2000/svg">
<path fill-rule="evenodd" clip-rule="evenodd" d="M44.8185 31.3344C41.967 31.3344 39.1155 32.4216 36.9395 34.599C32.5876 38.9508 32.5876 46.0068 36.9395 50.3586C39.1156 52.5347 41.967 53.6232 44.8185 53.6232C47.6713 53.6232 50.5232 52.5347 52.6988 50.3586C57.0511 46.0068 57.0511 38.9508 52.6988 34.599C50.5232 32.4229 47.6713 31.3344 44.8185 31.3344ZM50.8968 48.5558C49.2738 50.1787 47.1142 51.0737 44.8185 51.0737C42.5241 51.0737 40.3645 50.1787 38.742 48.5558C35.3908 45.2046 35.3908 39.7526 38.742 36.401C40.3645 34.7767 42.5241 33.8835 44.8185 33.8835C47.1142 33.8835 49.2738 34.7767 50.8968 36.401C52.5193 38.0234 53.4142 40.1818 53.4142 42.4775C53.4142 44.7732 52.5193 46.9328 50.8968 48.5553V48.5558ZM48.438 40.7915H45.8883V38.2419C45.8883 37.5382 45.3174 36.9673 44.6137 36.9673C43.9101 36.9673 43.3391 37.5383 43.3391 38.2419V42.0662C43.3391 42.7698 43.9101 43.3408 44.6137 43.3408H48.4381C49.1417 43.3408 49.7127 42.7698 49.7127 42.0662C49.7127 41.3626 49.1417 40.7916 48.4381 40.7916L48.438 40.7915ZM30.5921 49.7147C30.6212 49.7147 29.3753 49.7134 29.404 49.7116C30.0672 49.6673 30.5921 49.1145 30.5921 48.4396C30.5921 47.736 30.0211 47.165 29.3175 47.165H5.09805C3.69209 47.165 2.54886 46.0217 2.54886 44.6158V17.8459H49.7141V26.769C49.7141 27.4727 50.2851 28.0436 50.9887 28.0436C51.6924 28.0436 52.2633 27.4726 52.2633 26.769V10.1978C52.2633 7.38546 49.9768 5.09889 47.1644 5.09889H42.0654V4.46136C42.0654 2.00123 40.0641 0 37.6041 0C35.1441 0 33.1427 2.00135 33.1427 4.46136V5.09889H20.3956V4.46136C20.3956 2.00123 18.3943 0 15.9343 0C13.4737 0 11.4725 2.00135 11.4725 4.46136V5.09889H5.09894C2.28701 5.09889 0 7.38546 0 10.1978V44.616C0 47.428 2.28701 49.715 5.09894 49.715L30.5921 49.7147ZM2.54852 10.1977C2.54852 8.79124 3.69186 7.64801 5.09771 7.64801H11.4712V8.28555C11.4712 10.7457 13.4726 12.7469 15.9331 12.7469C18.3932 12.7469 20.3944 10.7456 20.3944 8.28555V7.64801H33.1415V8.28555C33.1415 10.7457 35.1428 12.7469 37.6029 12.7469C40.0629 12.7469 42.0642 10.7456 42.0642 8.28555V7.64801H47.1632C48.5696 7.64801 49.7128 8.79135 49.7128 10.1977V15.2966H2.54752L2.54852 10.1977ZM14.0209 4.46125C14.0209 3.4071 14.8789 2.54907 15.9331 2.54907C16.9872 2.54907 17.8452 3.40708 17.8452 4.46125V8.28559C17.8452 9.33973 16.9872 10.1978 15.9331 10.1978C14.8789 10.1978 14.0209 9.33976 14.0209 8.28559V4.46125ZM35.6909 4.46125C35.6909 3.4071 36.5489 2.54907 37.6031 2.54907C38.6572 2.54907 39.5152 3.40708 39.5152 4.46125V8.28559C39.5152 9.33973 38.6572 10.1978 37.6031 10.1978C36.5489 10.1978 35.6909 9.33976 35.6909 8.28559V4.46125ZM13.383 20.3956C10.9228 20.3956 8.92161 22.397 8.92161 24.857C8.92161 27.317 10.923 29.3188 13.383 29.3188C15.8435 29.3188 17.8448 27.3171 17.8448 24.857C17.8448 22.3969 15.8434 20.3956 13.383 20.3956ZM13.383 26.7692C12.3288 26.7692 11.4708 25.9112 11.4708 24.857C11.4708 23.8028 12.3288 22.9448 13.383 22.9448C14.4371 22.9448 15.2951 23.8028 15.2951 24.857C15.2951 25.9112 14.4371 26.7692 13.383 26.7692ZM26.13 20.3956C23.6695 20.3956 21.6682 22.397 21.6682 24.857C21.6682 27.317 23.6696 29.3188 26.13 29.3188C28.5902 29.3188 30.5914 27.3171 30.5914 24.857C30.5914 22.3969 28.5901 20.3956 26.13 20.3956ZM26.13 26.7692C25.0759 26.7692 24.2179 25.9112 24.2179 24.857C24.2179 23.8028 25.0759 22.9448 26.13 22.9448C27.1842 22.9448 28.0422 23.8028 28.0422 24.857C28.0422 25.9112 27.1842 26.7692 26.13 26.7692ZM34.4158 24.857C34.4158 27.3171 36.4171 29.3188 38.8771 29.3188C41.3377 29.3188 43.3389 27.3171 43.3389 24.857C43.3389 22.3969 41.3376 20.3956 38.8771 20.3956C36.417 20.3956 34.4158 22.397 34.4158 24.857ZM40.7893 24.857C40.7893 25.9111 39.9313 26.7692 38.8771 26.7692C37.8229 26.7692 36.9649 25.9112 36.9649 24.857C36.9649 23.8028 37.8229 22.9448 38.8771 22.9448C39.9313 22.9448 40.7893 23.8028 40.7893 24.857ZM26.1296 33.1427C23.669 33.1427 21.6678 35.1441 21.6678 37.6045C21.6678 40.0646 23.6691 42.0659 26.1296 42.0659C28.5897 42.0659 30.591 40.0645 30.591 37.6045C30.591 35.1439 28.5896 33.1427 26.1296 33.1427ZM26.1296 39.5167C25.0755 39.5167 24.2174 38.6587 24.2174 37.6045C24.2174 36.5504 25.0754 35.6923 26.1296 35.6923C27.1838 35.6923 28.0418 36.5504 28.0418 37.6045C28.0418 38.6587 27.1838 39.5167 26.1296 39.5167ZM13.3825 33.1427C10.9224 33.1427 8.92117 35.1441 8.92117 37.6045C8.92117 40.0646 10.9225 42.0659 13.3825 42.0659C15.8431 42.0659 17.8443 40.0645 17.8443 37.6045C17.8443 35.1439 15.843 33.1427 13.3825 33.1427ZM13.3825 39.5167C12.3284 39.5167 11.4704 38.6587 11.4704 37.6045C11.4704 36.5504 12.3284 35.6923 13.3825 35.6923C14.4367 35.6923 15.2947 36.5504 15.2947 37.6045C15.2947 38.6587 14.4367 39.5167 13.3825 39.5167Z" fill="#BB141B"/>
</svg>
