<?xml version="1.0" encoding="UTF-8"?>
<svg xmlns="http://www.w3.org/2000/svg" xmlns:xlink="http://www.w3.org/1999/xlink" width="0" height="0">
<symbol id="chev-left" width="25" height="25" viewBox="0 0 25 25" fill="none">
<path d="M6.37305 11.6714L15.8628 2.18213C16.3203 1.72461 17.0625 1.72461 17.52 2.18213L18.627 3.28906C19.084 3.74609 19.0845 4.48633 18.6289 4.94434L11.1079 12.5L18.6284 20.0562C19.0845 20.5142 19.0835 21.2544 18.6265 21.7114L17.5195 22.8184C17.062 23.2759 16.3198 23.2759 15.8623 22.8184L6.37305 13.3286C5.91553 12.8711 5.91553 12.1289 6.37305 11.6714Z" fill="black"/>
</symbol>

<symbol id="chev-right" width="25" height="25" viewBox="0 0 25 25" fill="none">
<path d="M18.6268 13.3287L9.1373 22.8181C8.67963 23.2757 7.93764 23.2757 7.48002 22.8181L6.37324 21.7113C5.91635 21.2544 5.91547 20.5139 6.37128 20.056L13.8918 12.5L6.37128 4.94409C5.91547 4.48613 5.91635 3.74565 6.37324 3.28877L7.48002 2.18198C7.93769 1.72432 8.67968 1.72432 9.1373 2.18198L18.6267 11.6714C19.0844 12.129 19.0844 12.871 18.6268 13.3287Z" fill="black"/>
</symbol>

<symbol id="email" width="25" height="25" viewBox="0 0 25 25" fill="none">
<path d="M24.5264 9.31641C24.7168 9.16504 25 9.30664 25 9.5459V19.5312C25 20.8252 23.9502 21.875 22.6562 21.875H2.34375C1.0498 21.875 0 20.8252 0 19.5312V9.55078C0 9.30664 0.27832 9.16992 0.473633 9.32129C1.56738 10.1709 3.01758 11.25 7.99805 14.8682C9.02832 15.6201 10.7666 17.2021 12.5 17.1924C14.2432 17.207 16.0156 15.5908 17.0068 14.8682C21.9873 11.25 23.4326 10.166 24.5264 9.31641ZM12.5 15.625C13.6328 15.6445 15.2637 14.1992 16.084 13.6035C22.5635 8.90137 23.0566 8.49121 24.5508 7.31934C24.834 7.09961 25 6.75781 25 6.39648V5.46875C25 4.1748 23.9502 3.125 22.6562 3.125H2.34375C1.0498 3.125 0 4.1748 0 5.46875V6.39648C0 6.75781 0.166016 7.09473 0.449219 7.31934C1.94336 8.48633 2.43652 8.90137 8.91602 13.6035C9.73633 14.1992 11.3672 15.6445 12.5 15.625Z" fill="white"/>
</symbol>

<symbol id="facebook" width="25" height="25" viewBox="0 0 25 25" fill="none">
<path d="M18.3169 14.0625L19.0112 9.53809H14.6699V6.60205C14.6699 5.36426 15.2764 4.15771 17.2207 4.15771H19.1943V0.305664C19.1943 0.305664 17.4033 0 15.6909 0C12.1157 0 9.77881 2.16699 9.77881 6.08984V9.53809H5.80469V14.0625H9.77881V25H14.6699V14.0625H18.3169Z" fill="white"/>
</symbol>

<symbol id="instagram" width="25" height="25" viewBox="0 0 25 25" fill="none">
<path d="M12.5046 6.8855C9.39917 6.8855 6.89429 9.39038 6.89429 12.4958C6.89429 15.6013 9.39917 18.1062 12.5046 18.1062C15.6101 18.1062 18.115 15.6013 18.115 12.4958C18.115 9.39038 15.6101 6.8855 12.5046 6.8855ZM12.5046 16.1433C10.4978 16.1433 8.85718 14.5076 8.85718 12.4958C8.85718 10.4841 10.4929 8.84839 12.5046 8.84839C14.5164 8.84839 16.1521 10.4841 16.1521 12.4958C16.1521 14.5076 14.5115 16.1433 12.5046 16.1433ZM19.6531 6.65601C19.6531 7.38354 19.0671 7.9646 18.3445 7.9646C17.6169 7.9646 17.0359 7.37866 17.0359 6.65601C17.0359 5.93335 17.6218 5.34741 18.3445 5.34741C19.0671 5.34741 19.6531 5.93335 19.6531 6.65601ZM23.3689 7.98413C23.2859 6.2312 22.8855 4.67847 21.6013 3.39917C20.322 2.11987 18.7693 1.71948 17.0164 1.63159C15.2097 1.52905 9.79468 1.52905 7.98804 1.63159C6.23999 1.7146 4.68726 2.11499 3.40308 3.39429C2.1189 4.67358 1.72339 6.22632 1.6355 7.97925C1.53296 9.78589 1.53296 15.2009 1.6355 17.0076C1.71851 18.7605 2.1189 20.3132 3.40308 21.5925C4.68726 22.8718 6.23511 23.2722 7.98804 23.3601C9.79468 23.4626 15.2097 23.4626 17.0164 23.3601C18.7693 23.2771 20.322 22.8767 21.6013 21.5925C22.8806 20.3132 23.281 18.7605 23.3689 17.0076C23.4714 15.2009 23.4714 9.79077 23.3689 7.98413ZM21.0349 18.946C20.6541 19.9031 19.9167 20.6404 18.9548 21.0261C17.5144 21.5974 14.0964 21.4656 12.5046 21.4656C10.9128 21.4656 7.48999 21.5925 6.05444 21.0261C5.09741 20.6453 4.36011 19.908 3.97437 18.946C3.40308 17.5056 3.53491 14.0876 3.53491 12.4958C3.53491 10.9041 3.40796 7.4812 3.97437 6.04565C4.35522 5.08862 5.09253 4.35132 6.05444 3.96558C7.49487 3.39429 10.9128 3.52612 12.5046 3.52612C14.0964 3.52612 17.5193 3.39917 18.9548 3.96558C19.9119 4.34644 20.6492 5.08374 21.0349 6.04565C21.6062 7.48608 21.4744 10.9041 21.4744 12.4958C21.4744 14.0876 21.6062 17.5105 21.0349 18.946Z" fill="white"/>
</symbol>

<symbol id="Interview" width="57" height="57" viewBox="0 0 57 57" fill="none">
<path d="M52.842 13.1877H44.3729C41.8488 6.90591 35.6788 2.41895 28.4997 2.41895C21.3204 2.41895 15.1503 6.90602 12.6265 13.1877H4.15691C3.70813 13.1877 3.31543 13.5804 3.31543 14.0292V47.402C3.31543 47.8508 3.70812 48.2435 4.15691 48.2435H25.0777V52.8427H21.1516C20.7028 52.8427 20.3101 53.2354 20.3101 53.6842C20.3101 54.133 20.7028 54.5257 21.1516 54.5257H35.7912C36.24 54.5257 36.6327 54.133 36.6327 53.6842C36.6327 53.2354 36.24 52.8427 35.7912 52.8427H31.8651V48.2435H52.7859C53.2347 48.2435 53.6274 47.8508 53.6274 47.402L53.627 14.0292C53.6831 13.5804 53.2904 13.1877 52.8416 13.1877H52.842ZM28.5001 4.10145C36.9693 4.10145 43.8679 11.0003 43.8679 19.4692C43.8679 27.9384 36.969 34.8369 28.5001 34.8369L14.3103 34.8373L17.6197 31.5279C17.788 31.3596 17.8441 31.1352 17.8441 30.9108C17.8441 30.6864 17.7319 30.462 17.6197 30.2937C14.703 27.377 13.1326 23.507 13.1326 19.4127C13.1322 10.9997 20.0311 4.10066 28.5004 4.10066L28.5001 4.10145ZM30.2388 52.8988H26.8176V48.2996H30.2388V52.8988ZM52.0012 46.617H4.99956V14.8707H12.0667C11.674 16.3288 11.4496 17.8996 11.4496 19.4699C11.4496 23.7325 13.0199 27.7707 15.8805 30.9122L11.674 35.1187C11.4496 35.3431 11.3374 35.7358 11.5057 36.0163C11.6179 36.3529 11.9545 36.5212 12.2911 36.5212L28.5005 36.5207C37.9234 36.5207 45.5515 28.8365 45.5515 19.4697C45.5515 17.8994 45.3271 16.3286 44.9344 14.8705H52.0015L52.0012 46.617Z" fill="#BB141B"/>
<path d="M23.7887 15.0389C24.2375 15.0389 24.6302 14.6462 24.6302 14.1974C24.6302 12.066 26.3688 10.3274 28.5002 10.3274C30.6316 10.3274 32.3702 12.066 32.3702 14.1974C32.3702 16.3288 30.6316 18.0674 28.5002 18.0674C28.0514 18.0674 27.6587 18.4601 27.6587 18.9089V25.6955C27.6587 26.1443 28.0514 26.537 28.5002 26.537C28.949 26.537 29.3417 26.1443 29.3417 25.6955L29.3412 19.6943C31.9775 19.3016 34.0527 17.0019 34.0527 14.1975C34.0527 11.1125 31.5847 8.64453 28.4997 8.64453C25.4147 8.64453 22.9468 11.1125 22.9468 14.1975C22.9472 14.6463 23.3399 15.0389 23.7887 15.0389Z" fill="#BB141B"/>
<path d="M28.5002 28.668C28.0514 28.668 27.6587 29.0607 27.6587 29.5095C27.6587 29.9582 28.0514 30.3509 28.5002 30.3509C28.949 30.3509 29.3417 29.9582 29.3417 29.5095C29.3412 29.0602 28.9485 28.668 28.5002 28.668Z" fill="#BB141B"/>
</symbol>

<symbol id="map" width="26" height="26" viewBox="0 0 26 26" fill="none">
<g clip-path="url(#clip0_304_803)">
<path d="M11.8705 24.9956C4.77588 14.7105 3.45898 13.6549 3.45898 9.875C3.45898 4.69731 7.6563 0.5 12.834 0.5C18.0117 0.5 22.209 4.69731 22.209 9.875C22.209 13.6549 20.8921 14.7105 13.7975 24.9956C13.3319 25.6682 12.336 25.6681 11.8705 24.9956ZM12.834 13.7812C14.9914 13.7812 16.7402 12.0324 16.7402 9.875C16.7402 7.71763 14.9914 5.96875 12.834 5.96875C10.6766 5.96875 8.92773 7.71763 8.92773 9.875C8.92773 12.0324 10.6766 13.7812 12.834 13.7812Z" fill="white"/>
</g>
<defs>
<clipPath>
<rect width="25" height="25" fill="white" transform="translate(0.333984 0.5)"/>
</clipPath>
</defs>
</symbol>

<symbol id="phone" width="26" height="26" viewBox="0 0 26 26" fill="none">
<g clip-path="url(#clip0_304_800)">
<path d="M24.9526 18.1656L19.4839 15.8218C19.2503 15.7223 18.9906 15.7013 18.744 15.762C18.4975 15.8228 18.2773 15.962 18.1167 16.1587L15.6948 19.1177C11.8939 17.3256 8.83506 14.2668 7.04297 10.4659L10.002 8.04399C10.1991 7.88368 10.3386 7.66351 10.3994 7.41682C10.4602 7.17013 10.4389 6.91035 10.3389 6.6768L7.99512 1.20805C7.88531 0.9563 7.6911 0.750751 7.44597 0.626852C7.20085 0.502952 6.92017 0.468467 6.65234 0.529342L1.57422 1.70122C1.316 1.76085 1.08562 1.90624 0.920671 2.11366C0.755725 2.32109 0.665956 2.57829 0.666016 2.84331C0.666016 15.3677 10.8174 25.4996 23.3223 25.4996C23.5874 25.4997 23.8447 25.41 24.0522 25.2451C24.2597 25.0801 24.4052 24.8497 24.4648 24.5914L25.6367 19.5132C25.6972 19.2441 25.662 18.9623 25.5371 18.7163C25.4123 18.4704 25.2056 18.2756 24.9526 18.1656Z" fill="white"/>
</g>
<defs>
<clipPath>
<rect width="25" height="25" fill="white" transform="translate(0.666016 0.5)"/>
</clipPath>
</defs>
</symbol>

<symbol id="plane" width="25" height="24" viewBox="0 0 25 24" fill="none">
<g clip-path="url(#clip0_307_186)">
<path d="M24.3751 18.8753H0.625111C0.279799 18.8753 0.00011104 19.155 0.00011104 19.5003V20.7503C0.00011104 21.0956 0.279799 21.3753 0.625111 21.3753H24.3751C24.7204 21.3753 25.0001 21.0956 25.0001 20.7503V19.5003C25.0001 19.155 24.7204 18.8753 24.3751 18.8753ZM3.1466 14.7061C3.39191 14.9733 3.73644 15.1249 4.09699 15.1245L9.1962 15.1175C9.59862 15.1169 9.99526 15.0217 10.354 14.8393L21.7196 9.07177C22.7642 8.54169 23.7005 7.78505 24.3376 6.79403C25.0528 5.68153 25.1306 4.87645 24.8482 4.3077C24.5665 3.73856 23.8818 3.32059 22.5728 3.23544C21.4068 3.15966 20.247 3.46669 19.2025 3.99638L15.3544 5.94911L6.81144 2.74364C6.70872 2.67444 6.58939 2.63394 6.46577 2.62632C6.34216 2.6187 6.21875 2.64423 6.10831 2.70028L3.53996 4.0038C3.12316 4.21513 3.02238 4.77138 3.338 5.11825L9.44034 8.95028L5.4087 10.9964L2.58253 9.57177C2.48516 9.52268 2.37762 9.49717 2.26857 9.4973C2.15953 9.49744 2.05204 9.52321 1.9548 9.57255L0.38722 10.3683C-0.0205921 10.5753 -0.128014 11.1151 0.169642 11.4651L3.1466 14.7061Z" fill="white"/>
</g>
<defs>
<clipPath>
<rect width="25" height="22.7503" fill="white" transform="translate(0 0.625)"/>
</clipPath>
</defs>
</symbol>

<symbol id="quote-left" width="25" height="25" viewBox="0 0 25 25" fill="none">
<path d="M22.6562 12.5H18.75V9.375C18.75 7.65137 20.1514 6.25 21.875 6.25H22.2656C22.915 6.25 23.4375 5.72754 23.4375 5.07812V2.73438C23.4375 2.08496 22.915 1.5625 22.2656 1.5625H21.875C17.5586 1.5625 14.0625 5.05859 14.0625 9.375V21.0938C14.0625 22.3877 15.1123 23.4375 16.4062 23.4375H22.6562C23.9502 23.4375 25 22.3877 25 21.0938V14.8438C25 13.5498 23.9502 12.5 22.6562 12.5ZM8.59375 12.5H4.6875V9.375C4.6875 7.65137 6.08887 6.25 7.8125 6.25H8.20312C8.85254 6.25 9.375 5.72754 9.375 5.07812V2.73438C9.375 2.08496 8.85254 1.5625 8.20312 1.5625H7.8125C3.49609 1.5625 0 5.05859 0 9.375V21.0938C0 22.3877 1.0498 23.4375 2.34375 23.4375H8.59375C9.8877 23.4375 10.9375 22.3877 10.9375 21.0938V14.8438C10.9375 13.5498 9.8877 12.5 8.59375 12.5Z" fill="black"/>
</symbol>

<symbol id="quote-right" width="25" height="25" viewBox="0 0 25 25" fill="none">
<path d="M22.6562 1.5625H16.4062C15.1123 1.5625 14.0625 2.6123 14.0625 3.90625V10.1562C14.0625 11.4502 15.1123 12.5 16.4062 12.5H20.3125V15.625C20.3125 17.3486 18.9111 18.75 17.1875 18.75H16.7969C16.1475 18.75 15.625 19.2725 15.625 19.9219V22.2656C15.625 22.915 16.1475 23.4375 16.7969 23.4375H17.1875C21.5039 23.4375 25 19.9414 25 15.625V3.90625C25 2.6123 23.9502 1.5625 22.6562 1.5625ZM8.59375 1.5625H2.34375C1.0498 1.5625 0 2.6123 0 3.90625V10.1562C0 11.4502 1.0498 12.5 2.34375 12.5H6.25V15.625C6.25 17.3486 4.84863 18.75 3.125 18.75H2.73438C2.08496 18.75 1.5625 19.2725 1.5625 19.9219V22.2656C1.5625 22.915 2.08496 23.4375 2.73438 23.4375H3.125C7.44141 23.4375 10.9375 19.9414 10.9375 15.625V3.90625C10.9375 2.6123 9.8877 1.5625 8.59375 1.5625Z" fill="black"/>
</symbol>

<symbol id="twitter" width="25" height="25" viewBox="0 0 25 25" fill="none">
<path d="M22.4302 7.40791C22.446 7.62998 22.446 7.8521 22.446 8.07417C22.446 14.8476 17.2906 22.6522 7.86802 22.6522C4.96509 22.6522 2.26841 21.8114 0 20.3521C0.412451 20.3997 0.808984 20.4155 1.2373 20.4155C3.63257 20.4155 5.83755 19.6065 7.59834 18.2265C5.3458 18.1789 3.45811 16.7036 2.80771 14.6731C3.125 14.7207 3.44224 14.7524 3.77539 14.7524C4.2354 14.7524 4.69546 14.689 5.12373 14.578C2.77603 14.1021 1.01519 12.0399 1.01519 9.54941V9.48599C1.69727 9.8667 2.49048 10.1046 3.33115 10.1363C1.95107 9.21626 1.04692 7.64585 1.04692 5.86919C1.04692 4.91743 1.30068 4.04497 1.74487 3.28354C4.26709 6.39268 8.05835 8.4231 12.3096 8.64521C12.2303 8.2645 12.1827 7.86797 12.1827 7.47139C12.1827 4.64775 14.4669 2.34766 17.3064 2.34766C18.7816 2.34766 20.1141 2.96631 21.05 3.96567C22.208 3.7436 23.3184 3.31528 24.302 2.72837C23.9212 3.91812 23.1122 4.91748 22.0494 5.55195C23.0805 5.44097 24.0799 5.15537 24.9999 4.75884C24.3021 5.77402 23.4295 6.67817 22.4302 7.40791Z" fill="white"/>
</symbol>

<symbol id="youtube" width="25" height="25" viewBox="0 0 25 25" fill="none">
<path d="M23.8569 6.77378C23.5842 5.74731 22.781 4.93889 21.7612 4.66454C19.9127 4.16602 12.5003 4.16602 12.5003 4.16602C12.5003 4.16602 5.08798 4.16602 3.23941 4.66454C2.21957 4.93893 1.41636 5.74731 1.14375 6.77378C0.648438 8.63433 0.648438 12.5162 0.648438 12.5162C0.648438 12.5162 0.648438 16.398 1.14375 18.2586C1.41636 19.2851 2.21957 20.0598 3.23941 20.3342C5.08798 20.8327 12.5003 20.8327 12.5003 20.8327C12.5003 20.8327 19.9126 20.8327 21.7612 20.3342C22.781 20.0598 23.5842 19.2851 23.8569 18.2586C24.3522 16.398 24.3522 12.5162 24.3522 12.5162C24.3522 12.5162 24.3522 8.63433 23.8569 6.77378ZM10.076 16.0406V8.99175L16.2713 12.5163L10.076 16.0406Z" fill="white"/>
</symbol>

<symbol id="Airplane" width="57" height="57" viewBox="0 0 57 57" fill="none">
<path d="M6.59058 31.1283C6.10655 31.1283 5.71387 30.736 5.71387 30.252C5.71387 29.768 6.10655 29.3757 6.59058 29.3757C8.93982 29.3827 11.2125 28.539 12.988 27.0009C13.3307 26.6591 13.8861 26.6599 14.2275 27.0031C14.5693 27.3457 14.5684 27.9006 14.2253 28.2425C12.1274 30.1198 9.40551 31.1487 6.59058 31.1283Z" fill="#BB141B"/>
<path d="M43.398 32.0059H33.7576C33.2736 32.0059 32.8813 31.6132 32.8813 31.1292C32.8813 30.6452 33.2736 30.2529 33.7576 30.2529H43.398C43.882 30.2529 44.2742 30.6452 44.2742 31.1292C44.2742 31.6132 43.882 32.0059 43.398 32.0059Z" fill="#BB141B"/>
<path d="M37.2639 52.1614H31.1291C30.8647 52.1614 30.6147 52.0418 30.4481 51.8361L15.5502 33.4324C15.2606 33.0558 15.3241 32.5166 15.6937 32.2174C16.0634 31.9182 16.6039 31.9682 16.9122 32.33L31.5474 50.4086H35.8757L27.7114 33.2574C27.503 32.8203 27.6887 32.2976 28.1258 32.0893C28.5629 31.8811 29.086 32.0667 29.2939 32.5038L38.0575 50.9074H38.0579C38.1875 51.1797 38.1679 51.4989 38.007 51.7533C37.8457 52.0081 37.5652 52.1616 37.2638 52.1608L37.2639 52.1614Z" fill="#BB141B"/>
<path d="M31.1282 20.6128C31.0078 20.6137 30.8882 20.5885 30.7777 20.5393C30.3346 20.3458 30.1324 19.8296 30.3255 19.3861L35.9232 6.59113H31.5457L20.4155 20.2901C20.1102 20.6658 19.5579 20.7223 19.1826 20.417C18.8069 20.1118 18.7499 19.5595 19.0552 19.1842L30.4485 5.16241H30.449C30.6151 4.95759 30.8652 4.83887 31.1287 4.83887H37.2634C37.5591 4.8393 37.8344 4.98802 37.9962 5.23547C38.158 5.48292 38.1845 5.79515 38.0662 6.06608L31.9315 20.0879V20.0874C31.7923 20.4066 31.477 20.6132 31.1287 20.6132L31.1282 20.6128Z" fill="#BB141B"/>
<path d="M23.4901 46.9033H17.9837C17.4997 46.9033 17.1074 46.5106 17.1074 46.0266V41.6448C17.1074 41.1608 17.4997 40.7686 17.9837 40.7686H19.9119H19.9115C20.3955 40.7686 20.7882 41.1608 20.7882 41.6448C20.7882 42.1289 20.3955 42.5211 19.9115 42.5211H18.8599V45.1503H23.4901C23.9737 45.1503 24.3663 45.5426 24.3663 46.0266C24.3663 46.5106 23.9737 46.9033 23.4901 46.9033Z" fill="#BB141B"/>
<path d="M19.911 16.231H17.9832C17.4992 16.231 17.1069 15.8387 17.1069 15.3547V10.973C17.1069 10.4889 17.4992 10.0967 17.9832 10.0967H23.4691C23.9531 10.0967 24.3454 10.4889 24.3454 10.973C24.3454 11.457 23.9531 11.8492 23.4691 11.8492H18.8595V14.4785H19.911C20.395 14.4785 20.7877 14.8707 20.7877 15.3547C20.7877 15.8388 20.395 16.231 19.911 16.231Z" fill="#BB141B"/>
<mask style="mask-type:luminance" maskUnits="userSpaceOnUse" x="0" y="19" width="57" height="18">
<path d="M0.455566 19.7051H56.5438V36.4043H0.455566V19.7051Z" fill="white"/>
</mask>
<g mask="url(#mask0_228_3721)">
<path d="M53.9151 21.4883H15.3544V20.6116C15.3544 20.1276 14.9621 19.7354 14.4781 19.7354C13.9941 19.7354 13.6018 20.1276 13.6018 20.6116V21.4879L11.8489 21.4883C7.81757 21.4883 6.10768 24.4568 4.59863 27.0752C3.56624 28.8656 2.58994 30.5581 1.00574 31.1944V31.1939C0.674358 31.3274 0.456923 31.6479 0.456055 32.005C0.457359 33.1666 0.919636 34.2803 1.74112 35.1017C2.56259 35.9232 3.67633 36.3854 4.83782 36.3867C5.87239 36.4241 6.90217 36.2297 7.85192 35.8179C8.27809 35.6118 8.74601 35.5066 9.21958 35.5105H14.4781C14.9621 35.5105 15.3543 35.1178 15.3543 34.6338C15.3543 34.1497 14.9621 33.7575 14.4781 33.7575H9.21958C8.51943 33.7536 7.8262 33.9032 7.19007 34.1958C6.45035 34.522 5.64539 34.672 4.83782 34.6338C4.23204 34.6329 3.64538 34.4229 3.17613 34.0397C2.70689 33.6566 2.38379 33.1239 2.26115 32.5307C4.03505 31.5579 5.09178 29.7262 6.11722 27.948C7.57406 25.423 8.83263 23.2409 11.8488 23.2409H53.9153C54.1475 23.2409 54.3706 23.3335 54.535 23.4975C54.6989 23.6619 54.7916 23.885 54.7916 24.1172V25.8701C54.7328 26.6394 54.3397 27.3444 53.7152 27.7979L45.3082 32.9685C44.4506 33.4382 43.4982 33.7078 42.522 33.7574H32.8821C32.3981 33.7574 32.0058 34.1497 32.0058 34.6337C32.0058 35.1177 32.3981 35.5104 32.8821 35.5104H42.522C43.8232 35.4586 45.093 35.0981 46.2266 34.4584L54.6345 29.2878C55.7795 28.518 56.4888 27.2487 56.544 25.8701V24.1172C56.544 23.42 56.267 22.7512 55.7738 22.2581C55.2811 21.7654 54.6121 21.4883 53.9151 21.4883Z" fill="#BB141B"/>
</g>
<path d="M9.21905 39.0165C8.73503 39.0165 8.34277 38.6243 8.34277 38.1402V37.264C8.34277 36.7799 8.73503 36.3877 9.21905 36.3877C9.70307 36.3877 10.0958 36.7799 10.0958 37.264V38.1402C10.0958 38.3729 10.0031 38.5956 9.83875 38.7599C9.67436 38.9243 9.4517 39.0165 9.21905 39.0165Z" fill="#BB141B"/>
<mask id="mask1_228_3721" style="mask-type:luminance" maskUnits="userSpaceOnUse" x="41" y="9" width="16" height="12">
<path d="M41.6367 9.12891H56.5436V20.707H41.6367V9.12891Z" fill="white"/>
</mask>
<g mask="url(#mask1_228_3721)">
<path d="M56.4132 9.63536C56.2536 9.37661 55.9714 9.21875 55.6674 9.21875H49.5327C49.2509 9.21875 48.986 9.35399 48.8212 9.58274L41.8101 19.3148C41.527 19.7075 41.6157 20.2555 42.0089 20.5385C42.4016 20.8216 42.9495 20.7329 43.2326 20.3402L46.1928 16.2298H52.1619V19.7353C52.1619 20.2193 52.5541 20.6116 53.0382 20.6116C53.5222 20.6116 53.9149 20.2193 53.9149 19.7353V15.5605L56.451 10.4873V10.4868C56.5867 10.2159 56.5724 9.89368 56.4132 9.63536ZM52.4967 14.4772H47.4557L49.9815 10.9717H54.2494L52.4967 14.4772Z" fill="#BB141B"/>
</g>
</symbol>

<symbol id="Application" width="57" height="57" viewBox="0 0 57 57" fill="none">
<path d="M53.7395 4.46588C52.9429 3.6692 51.8622 3.22168 50.7355 3.22168C49.6092 3.22168 48.5285 3.66916 47.7314 4.46588L44.1285 8.1032L11.0707 41.1187C11.0016 41.1887 10.9446 41.2687 10.9007 41.3565L6.70238 50.3732C6.54931 50.6955 6.61367 51.079 6.86372 51.3334C7.02419 51.4926 7.24119 51.5813 7.46733 51.58C7.5904 51.5804 7.71216 51.5543 7.82436 51.5035L16.841 47.2543H16.8406C16.9293 47.2117 17.0098 47.1543 17.0789 47.0843L53.7393 10.474C54.536 9.67687 54.9835 8.59668 54.9835 7.46993C54.9835 6.34318 54.536 5.26251 53.7393 4.46585L53.7395 4.46588ZM47.1281 14.6638L43.5247 11.0522L44.7229 9.85405L48.3262 13.4574L47.1281 14.6638ZM16.4839 45.3246L12.8806 41.7213L42.318 12.275L45.9295 15.8784L16.4839 45.3246ZM11.9286 43.1747L15.0219 46.2679L9.22622 48.9702L11.9286 43.1747ZM52.5333 9.26746L49.5336 12.2759L45.9307 8.67253L48.8966 5.66411C49.3827 5.20271 50.0276 4.94526 50.6983 4.94526C51.3684 4.94526 52.0133 5.20271 52.4996 5.66411C52.9818 6.13769 53.2558 6.78307 53.2623 7.45883C53.2689 8.13419 53.0066 8.78475 52.5339 9.26746H52.5333Z" fill="#BB141B"/>
<path d="M37.8473 30.1996C37.3781 30.1996 36.9976 30.5801 36.9976 31.0493V53.1446H3.00467V3.85522H36.9976V10.6536C36.9976 11.1228 37.3781 11.5033 37.8473 11.5033C38.317 11.5033 38.6975 11.1228 38.6975 10.6536V3.00545C38.6975 2.77976 38.6079 2.56361 38.4483 2.40446C38.2892 2.24486 38.073 2.15527 37.8473 2.15527H2.15443C1.68521 2.15527 1.30469 2.53579 1.30469 3.00545V53.9949C1.30469 54.2201 1.39427 54.4362 1.55387 54.5958C1.71304 54.755 1.92917 54.8446 2.15443 54.8446H37.8473C38.073 54.8446 38.2892 54.755 38.4483 54.5958C38.6079 54.4362 38.6975 54.2201 38.6975 53.9949V31.049C38.6975 30.8237 38.6079 30.6076 38.4483 30.448C38.2892 30.2889 38.073 30.1993 37.8473 30.1993V30.1996Z" fill="#BB141B"/>
<path d="M31.0495 9.80273H8.95424C8.48457 9.80273 8.10449 10.1833 8.10449 10.6525C8.10449 11.1217 8.48458 11.5022 8.95424 11.5022H31.0495C31.5188 11.5022 31.8993 11.1217 31.8993 10.6525C31.8993 10.1833 31.5188 9.80273 31.0495 9.80273Z" fill="#BB141B"/>
<path d="M31.8993 15.7521C31.8993 15.5268 31.8097 15.3107 31.6505 15.1511C31.4909 14.9919 31.2748 14.9023 31.0495 14.9023H8.95424C8.48457 14.9023 8.10449 15.2829 8.10449 15.7521C8.10449 16.2213 8.48458 16.6018 8.95424 16.6018H31.0495C31.2748 16.6018 31.4909 16.5123 31.6505 16.3531C31.8097 16.1935 31.8993 15.9774 31.8993 15.7521Z" fill="#BB141B"/>
<path d="M8.95424 20.001C8.48457 20.001 8.10449 20.3815 8.10449 20.8507C8.10449 21.3199 8.48458 21.7005 8.95424 21.7005H25.1013C25.5705 21.7005 25.951 21.3199 25.951 20.8507C25.951 20.3815 25.5705 20.001 25.1013 20.001H8.95424Z" fill="#BB141B"/>
</symbol>

<symbol id="Appointment" width="57" height="57" viewBox="0 0 57 57" fill="none">
<mask style="mask-type:luminance" maskUnits="userSpaceOnUse" x="0" y="1" width="57" height="54">
<path d="M0.455566 1.00195H56.4436V54.7734H0.455566V1.00195Z" fill="white"/>
</mask>
<g mask="url(#mask0_228_3723)">
<path fill-rule="evenodd" clip-rule="evenodd" d="M45.2765 32.4272C42.425 32.4272 39.5735 33.5144 37.3975 35.6918C33.0456 40.0436 33.0456 47.0996 37.3975 51.4514C39.5736 53.6275 42.425 54.716 45.2765 54.716C48.1293 54.716 50.9812 53.6275 53.1568 51.4514C57.5091 47.0996 57.5091 40.0436 53.1568 35.6918C50.9812 33.5156 48.1293 32.4272 45.2765 32.4272ZM51.3548 49.6485C49.7318 51.2715 47.5722 52.1664 45.2765 52.1664C42.9821 52.1664 40.8225 51.2715 39.2 49.6485C35.8488 46.2973 35.8488 40.8454 39.2 37.4937C40.8225 35.8694 42.9821 34.9763 45.2765 34.9763C47.5722 34.9763 49.7318 35.8695 51.3548 37.4937C52.9773 39.1162 53.8722 41.2745 53.8722 43.5702C53.8722 45.8659 52.9773 48.0256 51.3548 49.6481V49.6485ZM48.896 41.8843H46.3463V39.3346C46.3463 38.631 45.7754 38.0601 45.0718 38.0601C44.3681 38.0601 43.7972 38.631 43.7972 39.3346V43.159C43.7972 43.8626 44.3681 44.4336 45.0718 44.4336H48.8961C49.5997 44.4336 50.1707 43.8626 50.1707 43.159C50.1707 42.4554 49.5997 41.8844 48.8961 41.8844L48.896 41.8843ZM31.0501 50.8075C31.0792 50.8075 29.8333 50.8061 29.862 50.8044C30.5252 50.7601 31.0501 50.2073 31.0501 49.5324C31.0501 48.8287 30.4791 48.2578 29.7755 48.2578H5.55606C4.15009 48.2578 3.00687 47.1144 3.00687 45.7086V18.9386H50.1721V27.8618C50.1721 28.5654 50.7431 29.1364 51.4467 29.1364C52.1504 29.1364 52.7213 28.5654 52.7213 27.8618V11.2906C52.7213 8.47824 50.4348 6.19167 47.6224 6.19167H42.5235V5.55414C42.5235 3.09401 40.5221 1.09277 38.0621 1.09277C35.6021 1.09277 33.6007 3.09412 33.6007 5.55414V6.19167H20.8537V5.55414C20.8537 3.09401 18.8523 1.09277 16.3923 1.09277C13.9317 1.09277 11.9305 3.09412 11.9305 5.55414V6.19167H5.55695C2.74502 6.19167 0.458008 8.47824 0.458008 11.2906V45.7088C0.458008 48.5207 2.74502 50.8077 5.55695 50.8077L31.0501 50.8075ZM3.00653 11.2904C3.00653 9.88402 4.14987 8.74079 5.55572 8.74079H11.9293V9.37832C11.9293 11.8384 13.9306 13.8397 16.3911 13.8397C18.8512 13.8397 20.8524 11.8383 20.8524 9.37832V8.74079H33.5995V9.37832C33.5995 11.8384 35.6008 13.8397 38.0609 13.8397C40.5209 13.8397 42.5222 11.8383 42.5222 9.37832V8.74079H47.6212C49.0276 8.74079 50.1708 9.88413 50.1708 11.2904V16.3894H3.00553L3.00653 11.2904ZM14.4789 5.55402C14.4789 4.49988 15.3369 3.64185 16.3911 3.64185C17.4452 3.64185 18.3032 4.49985 18.3032 5.55402V9.37836C18.3032 10.4325 17.4452 11.2905 16.3911 11.2905C15.3369 11.2905 14.4789 10.4325 14.4789 9.37836V5.55402ZM36.1489 5.55402C36.1489 4.49988 37.0069 3.64185 38.0611 3.64185C39.1153 3.64185 39.9733 4.49985 39.9733 5.55402V9.37836C39.9733 10.4325 39.1153 11.2905 38.0611 11.2905C37.0069 11.2905 36.1489 10.4325 36.1489 9.37836V5.55402ZM13.841 21.4884C11.3809 21.4884 9.37962 23.4898 9.37962 25.9498C9.37962 28.4098 11.381 30.4116 13.841 30.4116C16.3016 30.4116 18.3028 28.4099 18.3028 25.9498C18.3028 23.4896 16.3014 21.4884 13.841 21.4884ZM13.841 27.8619C12.7868 27.8619 11.9288 27.0039 11.9288 25.9498C11.9288 24.8956 12.7868 24.0376 13.841 24.0376C14.8951 24.0376 15.7532 24.8956 15.7532 25.9498C15.7532 27.0039 14.8951 27.8619 13.841 27.8619ZM26.5881 21.4884C24.1275 21.4884 22.1262 23.4898 22.1262 25.9498C22.1262 28.4098 24.1276 30.4116 26.5881 30.4116C29.0482 30.4116 31.0494 28.4099 31.0494 25.9498C31.0494 23.4896 29.0481 21.4884 26.5881 21.4884ZM26.5881 27.8619C25.5339 27.8619 24.6759 27.0039 24.6759 25.9498C24.6759 24.8956 25.5339 24.0376 26.5881 24.0376C27.6422 24.0376 28.5002 24.8956 28.5002 25.9498C28.5002 27.0039 27.6422 27.8619 26.5881 27.8619ZM34.8738 25.9498C34.8738 28.4099 36.8751 30.4116 39.3351 30.4116C41.7957 30.4116 43.7969 28.4099 43.7969 25.9498C43.7969 23.4896 41.7956 21.4884 39.3351 21.4884C36.875 21.4884 34.8738 23.4898 34.8738 25.9498ZM41.2473 25.9498C41.2473 27.0039 40.3893 27.8619 39.3351 27.8619C38.281 27.8619 37.423 27.0039 37.423 25.9498C37.423 24.8956 38.281 24.0376 39.3351 24.0376C40.3893 24.0376 41.2473 24.8956 41.2473 25.9498ZM26.5876 34.2355C24.127 34.2355 22.1258 36.2368 22.1258 38.6973C22.1258 41.1574 24.1271 43.1587 26.5876 43.1587C29.0477 43.1587 31.049 41.1573 31.049 38.6973C31.049 36.2367 29.0476 34.2355 26.5876 34.2355ZM26.5876 40.6095C25.5335 40.6095 24.6754 39.7515 24.6754 38.6973C24.6754 37.6431 25.5334 36.7851 26.5876 36.7851C27.6418 36.7851 28.4998 37.6431 28.4998 38.6973C28.4998 39.7515 27.6418 40.6095 26.5876 40.6095ZM13.8405 34.2355C11.3804 34.2355 9.37918 36.2368 9.37918 38.6973C9.37918 41.1574 11.3805 43.1587 13.8405 43.1587C16.3011 43.1587 18.3023 41.1573 18.3023 38.6973C18.3023 36.2367 16.301 34.2355 13.8405 34.2355ZM13.8405 40.6095C12.7864 40.6095 11.9284 39.7515 11.9284 38.6973C11.9284 37.6431 12.7864 36.7851 13.8405 36.7851C14.8947 36.7851 15.7527 37.6431 15.7527 38.6973C15.7527 39.7515 14.8947 40.6095 13.8405 40.6095Z" fill="#BB141B"/>
</g>
</symbol>

<symbol id="Checklist" width="57" height="57" viewBox="0 0 57 57" fill="none">
<path d="M47.5191 53.7396H9.47938C8.98754 53.7396 8.58833 53.3408 8.58833 52.8485L8.58789 4.15137C8.58789 3.65952 8.98754 3.26074 9.47938 3.26074H47.5191C48.0127 3.26074 48.411 3.65952 48.411 4.15137V52.8485C48.411 53.3408 48.0127 53.7396 47.5195 53.7396H47.5191ZM10.3711 51.9579H46.6285V5.04198H10.3711V51.9579Z" fill="#BB141B"/>
<path d="M24.7846 22.8585H15.2743C14.782 22.8585 14.3832 22.4602 14.3832 21.9679L14.3828 12.4658C14.3828 11.974 14.7816 11.5752 15.2739 11.5752H24.7842L24.7846 13.3564H16.1658V21.0768H24.7851V22.8585H24.7846Z" fill="#BB141B"/>
<path d="M24.7846 32.3605H15.2743C14.782 32.3605 14.3832 31.9617 14.3832 31.4699L14.3828 21.9678C14.3828 21.4759 14.7816 21.0771 15.2739 21.0771H24.7842V22.8584H16.1658V30.5783H24.7851V32.3605H24.7846Z" fill="#BB141B"/>
<path d="M24.7846 41.8624H15.2743C14.782 41.8624 14.3832 41.4636 14.3832 40.9718L14.3828 31.4702C14.3828 30.9783 14.7816 30.5791 15.2739 30.5791H24.7842V32.3612L16.1658 32.3608V40.0807H24.7851V41.8624L24.7846 41.8624Z" fill="#BB141B"/>
<path d="M22.407 19.7396C22.1713 19.7396 21.9443 19.6461 21.7764 19.4782L17.7651 15.4699L19.0254 14.2102L22.3604 17.5418L27.2654 11.8818L28.6131 13.0486L23.0814 19.4321C22.9192 19.6187 22.6865 19.73 22.4391 19.7387C22.4278 19.7396 22.4183 19.7396 22.407 19.7396Z" fill="#BB141B"/>
<path d="M30.9946 16.3252H44.0278V18.1073H30.9946V16.3252Z" fill="#BB141B"/>
<path d="M30.9946 25.8271H44.0278V27.6093H30.9946V25.8271Z" fill="#BB141B"/>
<path d="M30.9946 35.3291H44.0278V37.1112H30.9946V35.3291Z" fill="#BB141B"/>
</symbol>

</svg>